<svg width="1220" height="107" viewBox="0 0 1220 107" fill="none" xmlns="http://www.w3.org/2000/svg">
<path d="M1202.94 9.9166H1209.73V116.965H1209.05L1125.46 34.8036H1124.78V114.919H1117.99V7.87109H1119.01L1202.26 90.3733H1202.94V9.9166Z" fill="#292929"/>
<path d="M1082.99 115.26V68.5546H1053.08V74.6911H1069.73V101.965C1064.98 105.033 1060.56 107.078 1055.8 108.442C1051.04 109.806 1045.95 110.488 1039.83 110.488C1032.02 110.488 1024.88 109.124 1019.1 106.737C1013.33 104.351 1008.23 100.942 1004.49 96.8508C1000.75 92.4188 997.696 87.3051 995.657 81.5094C993.958 75.7138 992.938 69.2364 992.938 62.0771C992.938 55.2587 993.958 48.7813 995.657 42.9857C997.696 37.1901 1000.41 32.4172 1004.15 27.9853C1007.89 23.5533 1012.31 20.4851 1017.74 18.0986C1023.18 15.7122 1029.3 14.6895 1036.43 14.6895C1041.19 14.6895 1045.61 15.0304 1050.03 16.735C1054.1 17.4168 1057.84 18.7805 1060.9 20.4851C1063.96 21.8487 1066.68 23.8943 1068.71 25.9398C1070.75 27.9853 1072.11 30.0308 1072.79 32.0763H1083.67C1082.65 29.6899 1080.95 27.3034 1078.91 24.5761C1076.53 21.8487 1073.81 19.1214 1070.07 16.735C1066.34 14.3485 1061.58 12.303 1056.14 10.5984C1050.7 8.89385 1044.25 7.87109 1036.77 7.87109C1028.28 7.87109 1020.46 9.23477 1013.33 11.6212C1006.19 14.0076 1000.07 17.4168 994.977 21.8487C989.54 26.2807 985.802 32.0763 982.744 38.5537C979.686 45.0312 978.327 52.5314 978.327 60.7134C978.327 67.8727 979.686 74.6911 981.725 81.5094C983.764 88.3278 987.162 94.1234 991.919 99.5781C996.676 104.692 1002.79 109.124 1009.93 112.192C1017.06 115.26 1025.9 116.965 1035.75 116.965C1043.23 116.965 1050.03 116.283 1055.8 114.579C1061.58 112.874 1066.34 111.169 1070.07 109.124V115.26H1082.99Z" fill="#292929"/>
<path d="M929.395 11.6212H942.987V116.965H929.395V11.6212Z" fill="#292929"/>
<path d="M826.094 88.6687H815.9C816.24 92.7598 817.26 96.8508 819.638 101.283C821.677 104.692 824.735 107.76 828.133 110.147C831.871 112.533 835.949 114.579 840.706 115.942C845.463 117.306 850.56 117.988 856.337 117.988C862.114 117.988 867.211 117.306 871.968 115.942C876.725 114.579 880.463 112.533 883.861 109.806C887.259 107.078 889.978 104.01 891.677 100.26C893.376 96.5099 894.395 92.4188 894.395 87.9869C894.395 81.5094 892.696 76.3957 889.638 72.6456C886.58 68.5546 882.842 65.4863 878.085 62.7589C873.327 60.0316 868.23 57.6452 862.793 55.9406C861.06 55.2884 859.361 54.6708 857.696 54.0659C854.141 52.7734 850.743 51.5383 847.502 50.145C842.745 48.0995 839.007 46.0539 835.949 43.3266C832.891 40.9402 831.192 37.531 831.192 33.099C831.192 30.7126 831.531 28.3262 832.551 26.2807C833.91 24.2352 835.269 22.1897 837.308 20.826C839.687 19.1214 842.065 18.0986 845.124 17.0759C847.842 16.0531 851.58 15.7122 855.318 15.7122C862.114 15.7122 867.551 17.0759 871.968 19.8032C876.725 22.5306 879.444 26.9625 880.123 32.7581H890.318C889.638 29.008 888.279 25.9398 886.24 22.8715C884.201 19.8032 881.483 17.4168 878.424 15.3713C875.366 13.3258 871.628 11.6212 867.551 10.5984C863.473 9.57569 859.395 8.89385 854.978 8.89385C850.221 8.89385 845.803 9.23477 841.725 10.5984C837.648 11.6212 833.91 13.3258 830.852 15.7122C827.794 18.0986 825.415 21.1669 823.376 24.5761C821.677 27.9853 820.658 32.0763 820.658 36.5082C820.658 42.3038 822.017 47.0767 825.075 50.8268C828.133 54.236 831.871 57.3042 836.289 59.6907C841.046 62.0771 845.803 64.1226 851.24 65.8272C856.337 67.5318 861.434 69.5773 865.852 71.6228C870.609 73.6683 874.347 76.3957 877.405 79.4639C880.463 82.5322 881.822 86.9641 881.822 92.0779C881.822 98.5554 879.444 103.328 874.686 106.396C869.929 109.465 863.473 110.828 855.657 110.828C849.201 110.828 844.104 110.147 840.366 108.442C836.289 106.737 833.57 104.692 831.531 102.305C829.492 99.919 828.133 97.5326 827.454 95.1462C826.434 92.4188 826.094 90.3733 826.094 88.6687Z" fill="#292929"/>
<path d="M719.736 9.9166H787.697V18.0986H733.668V55.9406H780.221V62.7589H733.668V107.078H787.697V115.26H719.736V9.9166Z" fill="#292929"/>
<path fill-rule="evenodd" clip-rule="evenodd" d="M593.329 9.9166V115.26H629.688C637.163 115.26 644.299 114.238 650.755 111.51C657.552 109.124 663.328 105.374 668.086 100.601C672.843 95.828 676.92 90.3733 679.639 83.8959C682.697 77.4184 684.056 70.2591 684.056 62.418C684.056 54.9178 682.697 48.0995 679.979 41.622C677.26 35.1446 673.522 29.6899 668.425 24.917C663.668 20.1442 657.552 16.735 650.755 14.0076C643.959 11.2803 636.144 9.9166 627.989 9.9166H593.329ZM623.571 108.442H606.921V16.3941H623.571C631.047 16.3941 637.503 17.7577 643.28 20.1442C649.057 22.5306 653.814 25.9398 657.552 30.3717C661.289 34.4627 664.348 39.5765 666.387 45.0312C668.425 50.4859 669.445 56.2815 669.445 62.418C669.445 67.8727 668.425 73.3274 666.726 78.7821C665.027 84.2368 662.309 89.0097 658.571 93.4416C654.833 97.8735 650.076 101.624 644.299 104.351C638.862 107.078 631.727 108.442 623.571 108.442Z" fill="#292929"/>
<path d="M468.62 115.26H454.689V18.0986H414.592V9.9166H508.717V18.0986H468.62V115.26Z" fill="#292929"/>
<path d="M247.408 9.9166H261V115.26H247.408V9.9166Z" fill="#292929"/>
<path d="M100.952 80.8276C98.9135 86.9641 97.8941 93.1007 97.8941 98.8963C97.8941 102.694 98.4796 107.078 99.1072 111.778C99.1557 112.141 99.2045 112.507 99.2533 112.874H113.525C112.506 108.442 112.166 103.669 112.166 98.8963C112.166 91.737 113.185 85.2596 115.224 79.4639C117.263 73.3274 120.321 68.2136 124.059 64.1226C127.797 59.6907 132.214 56.6224 137.311 54.236C142.408 51.8496 147.845 50.4859 153.962 50.4859C159.738 50.4859 165.515 51.8496 170.612 54.236C176.049 56.6224 180.806 60.0316 184.544 64.1226C188.622 68.5546 191.68 73.6683 194.059 79.4639C196.437 85.6005 197.457 91.737 197.457 98.8963C197.457 104.01 196.777 108.442 195.758 112.874H210.029C210.369 112.192 210.709 111.51 210.709 110.828C211.729 106.737 212.408 102.987 212.408 99.2372C212.408 93.4416 211.389 87.646 209.01 81.1685C206.971 74.6911 203.233 68.8955 198.476 63.4408C193.719 57.9861 187.602 53.5541 180.127 50.145C172.991 46.3949 164.156 44.6903 154.302 44.6903C144.447 44.6903 135.952 46.3949 128.816 49.804C121.68 53.2132 115.904 57.6452 111.146 63.0999C106.389 68.5546 102.991 74.3502 100.952 80.8276Z" fill="#292929"/>
<path fill-rule="evenodd" clip-rule="evenodd" d="M23.8168 115.26V71.2819C26.5352 71.9637 29.2536 72.6456 32.3119 73.3274C35.3701 73.6683 38.4284 74.0092 42.1662 74.0092C48.2827 74.0092 53.7195 72.9865 58.4768 71.2819C62.8943 69.5773 66.9719 67.5318 70.0301 64.4635C73.0884 61.3953 75.467 57.9861 77.166 54.236C78.8651 50.145 79.5447 46.0539 79.5447 41.622C79.5447 37.531 78.8651 33.44 77.5058 29.6899C76.1466 25.5988 74.1078 22.1897 71.0496 19.4623C68.3311 16.735 64.9331 14.3485 60.5156 12.6439C56.0982 10.9394 51.0011 9.9166 45.2244 9.9166H10.2246V115.26H23.8168ZM23.8168 65.1454V16.735H39.108C43.5254 16.735 47.2633 17.7577 50.3215 19.1214C53.3797 20.826 56.0982 22.8715 58.137 25.2579C60.1758 27.6444 61.8748 30.3717 62.8943 33.44C63.9137 36.1673 64.5933 39.2356 64.5933 42.3038C64.5933 45.0312 64.2535 48.0995 63.2341 51.1677C62.5545 53.8951 60.8554 56.6224 58.8166 59.0088C56.7778 61.3953 54.0593 63.4408 51.0011 64.8045C47.9429 66.509 43.8652 67.1909 39.4478 67.1909C36.3895 67.1909 33.6711 67.1909 30.9527 66.85C28.2342 66.509 25.8556 65.8272 23.8168 65.1454Z" fill="#292929"/>
<path d="M387.067 9.57569H380.611V90.0324H379.932L296.68 7.87109H296V114.919H302.796V34.4627H303.476L386.388 116.965H387.067V9.57569Z" fill="#292929"/>
<path d="M106.707 12.9841C106.112 12.217 105.518 11.45 105.008 10.5977H119.28C119.789 11.109 120.214 11.7056 120.639 12.3022C121.064 12.8988 121.488 13.4955 121.998 14.0068C125.736 18.4388 130.153 21.848 135.25 24.2344C140.348 26.6208 145.784 27.9845 151.901 27.9845C157.678 27.9845 163.454 26.6208 168.551 24.2344C173.988 21.848 178.746 18.4388 182.483 14.0068C183.503 12.9841 184.522 11.9613 185.542 10.5977H199.813C199.134 11.45 198.539 12.217 197.945 12.9841C197.35 13.7512 196.755 14.5182 196.076 15.3705C192.678 19.1206 188.94 22.1889 184.522 25.2571C180.105 28.3254 175.348 30.7118 169.571 32.4164C164.474 34.121 158.357 34.8029 151.561 34.8029C141.707 34.8029 133.212 33.0983 126.076 29.3482C118.94 25.5981 113.163 20.8252 108.406 15.3705C107.896 14.5182 107.301 13.7512 106.707 12.9841Z" fill="#292929"/>
</svg>
