<svg width="203" height="22" viewBox="0 0 203 22" fill="none" xmlns="http://www.w3.org/2000/svg">
<path fill-rule="evenodd" clip-rule="evenodd" d="M201.303 2.03459H200.172V15.3794H200.059L186.205 1.69531H186.035V19.4507H187.166V6.16244H187.279L201.189 19.79H201.303V2.03459ZM180.211 11.7039V19.5073H178.062V18.4895C177.44 18.8287 176.649 19.1115 175.687 19.3942C174.726 19.6769 173.595 19.79 172.351 19.79C170.711 19.79 169.241 19.5073 168.054 18.9984C166.866 18.4895 165.848 17.7544 165.057 16.9062C164.265 16.0014 163.699 15.0402 163.36 13.9092C163.021 12.7783 162.795 11.6474 162.795 10.4599C162.795 9.10283 163.021 7.85882 163.53 6.78445C164.039 5.71008 164.661 4.74879 165.566 4.0137C166.414 3.2786 167.432 2.71314 168.619 2.31732C169.806 1.9215 171.107 1.69531 172.521 1.69531C173.765 1.69531 174.839 1.86495 175.744 2.14768C176.649 2.43041 177.44 2.76969 178.062 3.16551C178.684 3.56133 179.137 4.0137 179.532 4.46606C179.872 4.91843 180.154 5.31425 180.324 5.71008H178.515C178.401 5.3708 178.175 5.03152 177.836 4.69225C177.497 4.35297 177.044 4.0137 176.535 3.78751C176.027 3.50478 175.405 3.2786 174.726 3.16551C173.991 2.88278 173.256 2.82623 172.464 2.82623C171.277 2.82623 170.259 2.99587 169.354 3.39169C168.449 3.78751 167.714 4.29643 167.092 5.03152C166.47 5.76662 166.018 6.55827 165.679 7.51955C165.396 8.48083 165.226 9.5552 165.226 10.6861C165.226 11.8736 165.396 12.948 165.679 13.9092C166.018 14.8705 166.527 15.7187 167.149 16.4538C167.771 17.1324 168.619 17.6978 169.58 18.0936C170.542 18.4895 171.729 18.7156 173.03 18.7156C174.047 18.7156 174.896 18.6026 175.687 18.3764C176.479 18.1502 177.214 17.8109 178.006 17.302V12.7783H175.235V11.7605H180.211V11.7039ZM156.914 2.31732H154.652V19.79H156.914V2.31732ZM135.766 15.0967H137.462C137.462 15.3794 137.519 15.7187 137.688 16.1711C137.801 16.5669 138.028 16.9627 138.367 17.3585C138.706 17.7544 139.159 18.0936 139.837 18.3764C140.459 18.6591 141.307 18.7722 142.382 18.7722C143.682 18.7722 144.757 18.546 145.548 18.0371C146.34 17.5282 146.736 16.7365 146.736 15.6622C146.736 14.814 146.51 14.0789 146.001 13.57C145.492 13.0611 144.87 12.6087 144.078 12.2694C143.343 11.9301 142.495 11.5909 141.647 11.3081C140.742 11.0254 139.95 10.6861 139.159 10.2903C138.423 9.89448 137.801 9.38556 137.293 8.8201C136.784 8.1981 136.557 7.40645 136.557 6.44517C136.557 5.71008 136.727 5.03152 137.01 4.46606C137.349 3.9006 137.745 3.39169 138.254 2.99587C138.763 2.60005 139.385 2.31732 140.063 2.14768C140.742 1.9215 141.477 1.86495 142.269 1.86495C143.004 1.86495 143.682 1.97804 144.361 2.14768C145.039 2.31732 145.661 2.60005 146.17 2.93932C146.679 3.2786 147.132 3.67442 147.471 4.18333C147.81 4.69225 148.036 5.20116 148.149 5.82317H146.453C146.34 4.86189 145.888 4.12679 145.096 3.67442C144.361 3.22205 143.456 2.99587 142.325 2.99587C141.703 2.99587 141.081 3.05242 140.629 3.22205C140.12 3.39169 139.724 3.56133 139.328 3.84406C138.989 4.07024 138.763 4.40952 138.537 4.74879C138.367 5.08807 138.31 5.48389 138.31 5.87971C138.31 6.61481 138.593 7.18027 139.102 7.57609C139.611 8.02846 140.233 8.36774 141.025 8.70701C141.816 9.04629 142.664 9.32902 143.569 9.66829C144.474 9.95102 145.322 10.3468 146.114 10.7992C146.905 11.2516 147.527 11.7605 148.036 12.439C148.545 13.0611 148.828 13.9092 148.828 14.9836C148.828 15.7187 148.658 16.3973 148.376 17.0193C148.093 17.6413 147.64 18.1502 147.075 18.6026C146.51 19.0549 145.888 19.3942 145.096 19.6204C144.304 19.8466 143.456 19.9597 142.495 19.9597C141.533 19.9597 140.685 19.8466 139.894 19.6204C139.102 19.3942 138.423 19.0549 137.801 18.6591C137.236 18.2633 136.727 17.7544 136.388 17.1889C135.992 16.4538 135.822 15.7753 135.766 15.0967ZM131.072 2.03459H119.763V19.5073H131.072V18.1502H122.082V10.7992H129.828V9.66829H122.082V3.39169H131.072V2.03459ZM100.99 18.3764H103.761C105.118 18.3764 106.305 18.1502 107.21 17.6978C108.171 17.2455 108.963 16.6234 109.585 15.8883C110.207 15.1533 110.659 14.3616 110.942 13.4569C111.225 12.5521 111.394 11.6474 111.394 10.7427C111.394 9.72484 111.225 8.76356 110.886 7.85882C110.546 6.95409 110.037 6.1059 109.415 5.42735C108.793 4.69225 108.002 4.12679 107.04 3.73097C106.079 3.33515 105.005 3.10896 103.761 3.10896H100.99V18.3764ZM98.7282 19.5073V2.03459H104.496C105.853 2.03459 107.154 2.26077 108.284 2.71314C109.415 3.16551 110.433 3.73097 111.225 4.52261C112.073 5.31425 112.695 6.21899 113.147 7.29336C113.6 8.36774 113.826 9.49865 113.826 10.7427C113.826 12.0432 113.6 13.2307 113.091 14.3051C112.638 15.3794 111.96 16.2842 111.168 17.0758C110.377 17.8675 109.415 18.4895 108.284 18.8853C107.21 19.3377 106.023 19.5073 104.779 19.5073H98.7282ZM75.714 19.5073H77.9758V3.39169H84.6482V2.03459H68.985V3.39169H75.6574V19.5073H75.714ZM43.4262 2.03459H41.1644V19.5073H43.4262V2.03459ZM16.2842 16.7931C16.2842 15.8318 16.4538 14.814 16.7931 13.7961C17.1324 12.7218 17.6978 11.7605 18.4895 10.8558C19.2811 9.95102 20.2424 9.21593 21.4299 8.65047C22.6173 8.08501 24.031 7.80228 25.6708 7.80228C27.3106 7.80228 28.7808 8.08501 29.9683 8.70701C31.2123 9.27247 32.2301 10.0076 33.0218 10.9123C33.8134 11.817 34.4354 12.7783 34.7747 13.8527C35.1705 14.9271 35.3402 15.8883 35.3402 16.8496C35.3402 17.4716 35.2271 18.0936 35.0574 18.7722C35.0574 18.8853 35.0009 18.9984 34.9443 19.1115H32.5694C32.739 18.3764 32.8521 17.6413 32.8521 16.7931C32.8521 15.6056 32.6825 14.5878 32.2867 13.57C31.8909 12.6087 31.3819 11.7605 30.7034 11.0254C30.0814 10.3468 29.2897 9.78139 28.385 9.38556C27.5368 8.98974 26.5755 8.76356 25.6143 8.76356C24.5964 8.76356 23.6917 8.98974 22.8435 9.38556C21.9953 9.78139 21.2602 10.2903 20.6382 11.0254C20.0162 11.7039 19.5073 12.5521 19.168 13.57C18.8287 14.5312 18.6591 15.6056 18.6591 16.7931C18.6591 17.5847 18.7156 18.3764 18.8853 19.1115H16.5104C16.3973 18.2633 16.2842 17.4716 16.2842 16.7931ZM3.95715 3.10896V11.195C4.29643 11.3081 4.69225 11.4212 5.14462 11.4778C5.59698 11.5343 6.04935 11.5343 6.55827 11.5343C7.29336 11.5343 7.97191 11.4212 8.48083 11.1385C8.98974 10.9123 9.44211 10.573 9.78139 10.1772C10.1207 9.78138 10.4034 9.32902 10.5165 8.87665C10.6861 8.36774 10.7427 7.85882 10.7427 7.40645C10.7427 6.89754 10.6296 6.38863 10.4599 5.93626C10.2903 5.42735 10.0076 4.97498 9.66829 4.57916C9.32902 4.18333 8.87665 3.84406 8.36774 3.56133C7.85882 3.33515 7.23682 3.16551 6.50172 3.16551H3.95715V3.10896ZM3.95715 12.2129V19.5073H1.69531V2.03459H7.51955C8.48083 2.03459 9.32902 2.20423 10.0641 2.48696C10.7992 2.76969 11.3647 3.16551 11.817 3.61788C12.326 4.07024 12.6652 4.6357 12.8914 5.31425C13.1176 5.93626 13.2307 6.61481 13.2307 7.29336C13.2307 8.02846 13.1176 8.70701 12.8349 9.38556C12.5521 10.0076 12.1563 10.573 11.6474 11.0819C11.1385 11.5909 10.4599 11.9301 9.72484 12.2129C8.9332 12.4956 8.02846 12.6652 7.01063 12.6652C6.38863 12.6652 5.87971 12.6087 5.3708 12.5521C4.86189 12.439 4.40952 12.326 3.95715 12.2129ZM63.2739 1.97804H64.4048V19.79H64.2917L50.4945 6.1059H50.3814V19.4507H49.2505V1.69531H49.3636L63.2173 15.3229H63.3304V1.97804H63.2739Z" fill="white"/>
<path fill-rule="evenodd" clip-rule="evenodd" d="M17.4727 2.14844C17.6423 2.43117 17.8685 2.65735 18.0381 2.94008C18.8298 3.84482 19.791 4.63646 20.9785 5.25847C22.166 5.88047 23.5796 6.1632 25.2195 6.1632C26.3504 6.1632 27.3682 6.05011 28.2164 5.76738C29.1777 5.48465 29.9693 5.08883 30.7044 4.57991C31.4395 4.071 32.0615 3.56209 32.627 2.94008C32.8532 2.65735 33.0228 2.43117 33.249 2.14844H30.874C30.7044 2.37462 30.5348 2.54426 30.3651 2.7139C29.7431 3.44899 28.9515 4.01445 28.0468 4.41028C27.1986 4.8061 26.2373 5.03228 25.276 5.03228C24.2582 5.03228 23.3534 4.8061 22.5052 4.41028C21.6571 4.01445 20.922 3.44899 20.3 2.7139C20.1303 2.54426 20.0172 2.31808 19.8476 2.14844H17.4727Z" fill="white"/>
</svg>
