<svg width="88" height="246" viewBox="0 0 88 246" fill="none" xmlns="http://www.w3.org/2000/svg">
<path d="M-157.954 163.334C-162.335 176.473 -164.525 189.613 -164.525 202.022C-164.525 210.782 -163.065 221.002 -161.605 231.951H-130.94C-133.13 222.461 -133.86 212.242 -133.86 202.022C-133.86 186.693 -131.67 172.823 -127.289 160.414C-122.909 147.275 -116.338 136.325 -108.306 127.565C-100.275 118.076 -90.7834 111.506 -79.8316 106.396C-68.8798 101.286 -57.1979 98.3665 -44.0558 98.3665C-31.6438 98.3665 -19.2318 101.286 -8.28 106.396C3.4019 111.506 13.6236 118.806 21.6549 127.565C30.4163 137.055 36.9873 148.005 42.0982 160.414C47.209 173.553 49.3994 186.693 49.3994 202.022C49.3994 212.972 47.9391 222.461 45.7488 231.951H76.4137L76.4138 231.951C77.1439 230.491 77.874 229.031 77.874 227.571C80.0644 218.812 81.5246 210.782 81.5246 202.752C81.5246 190.343 79.3342 177.933 74.2234 164.064C69.8427 150.194 61.8114 137.785 51.5897 126.105C41.3681 114.426 28.2259 104.936 12.1633 97.6365C-3.16917 89.6069 -22.1522 85.957 -43.3257 85.957C-64.4991 85.957 -82.7521 89.6069 -98.0846 96.9066C-113.417 104.206 -125.829 113.696 -136.051 125.375C-146.272 137.055 -153.574 149.464 -157.954 163.334Z" fill="#EFEAE1"/>
<path fill-rule="evenodd" clip-rule="evenodd" d="M-149.197 12.9492C-147.007 16.5991 -144.086 19.519 -141.896 23.1688C-131.674 34.8483 -119.262 45.0679 -103.93 53.0976C-88.5974 61.1273 -70.3445 64.7771 -49.171 64.7771C-34.5686 64.7771 -21.4265 63.3172 -10.4747 59.6673C1.9373 56.0175 12.159 50.9077 21.6505 44.3379C31.142 37.7682 39.1733 31.1985 46.4745 23.1688C49.395 19.519 51.5853 16.5991 54.5058 12.9492H23.8408C21.6505 15.8691 19.4601 18.059 17.2698 20.2489C9.23848 29.7385 -0.9832 37.0382 -12.6651 42.148C-23.6169 47.2578 -36.0289 50.1777 -48.4409 50.1777C-61.583 50.1777 -73.2649 47.2578 -84.2167 42.148C-95.1685 37.0382 -104.66 29.7385 -112.691 20.2489C-114.882 18.059 -116.342 15.1391 -118.532 12.9492H-149.197Z" fill="#EFEAE1"/>
</svg>
