<svg width="140" height="354" viewBox="0 0 140 354" fill="none" xmlns="http://www.w3.org/2000/svg">
<path d="M25.6892 191.347C17.0631 217.198 12.75 243.05 12.75 267.465C12.75 284.7 15.6254 304.807 18.5008 326.35H78.8835C74.5705 307.679 73.1328 287.572 73.1328 267.465C73.1328 237.305 77.4458 210.017 86.072 185.602C94.6981 159.75 107.637 138.207 123.452 120.973C139.266 102.302 157.956 89.3764 179.522 79.323C201.087 69.2696 224.09 63.5248 249.968 63.5248C274.409 63.5248 298.849 69.2696 320.415 79.323C343.418 89.3764 363.545 103.738 379.36 120.973C396.612 139.643 409.551 161.187 419.615 185.602C429.679 211.454 433.992 237.305 433.992 267.465C433.992 289.008 431.116 307.679 426.803 326.35H487.186L487.186 326.349C488.624 323.477 490.062 320.605 490.062 317.733C494.375 300.498 497.25 284.7 497.25 268.902C497.25 244.486 492.937 220.071 482.873 192.783C474.247 165.495 458.432 141.08 438.305 118.1C418.177 95.1212 392.299 76.4506 360.67 62.0886C330.478 46.2904 293.099 39.1094 251.406 39.1094C209.713 39.1094 173.771 46.2904 143.579 60.6524C113.388 75.0144 88.9473 93.685 68.8198 116.664C48.6922 139.644 34.3153 164.059 25.6892 191.347Z" fill="#EFEAE1"/>
</svg>
