<svg width="351" height="110" viewBox="0 0 351 110" fill="none" xmlns="http://www.w3.org/2000/svg">
<path fill-rule="evenodd" clip-rule="evenodd" d="M-116.068 25.4727C-111.755 32.6537 -106.005 38.3985 -101.692 45.5795C-81.5639 68.5587 -57.1233 88.6655 -26.9319 104.464C3.25951 120.262 39.2016 127.443 80.8945 127.443C109.648 127.443 135.527 124.571 157.092 117.39C181.533 110.209 201.66 100.155 220.35 87.2293C239.04 74.3035 254.854 61.3777 269.231 45.5795C274.982 38.3985 279.295 32.6537 285.046 25.4727H224.663C220.35 31.2175 216.037 35.5261 211.724 39.8347C195.909 58.5053 175.782 72.8673 152.779 82.9207C131.214 92.9741 106.773 98.7189 82.3322 98.7189C56.4539 98.7189 33.4509 92.9741 11.8856 82.9207C-9.67965 72.8673 -28.3695 58.5053 -44.1841 39.8347C-48.4971 35.5261 -51.3725 29.7813 -55.6856 25.4727H-116.068Z" fill="#EFEAE1"/>
</svg>
