<svg width="140" height="110" viewBox="0 0 140 110" fill="none" xmlns="http://www.w3.org/2000/svg">
<path fill-rule="evenodd" clip-rule="evenodd" d="M42.9316 25.4727C47.2447 32.6537 52.9954 38.3985 57.3085 45.5795C77.4361 68.5587 101.877 88.6655 132.068 104.464C162.26 120.262 198.202 127.443 239.895 127.443C268.648 127.443 294.527 124.571 316.092 117.39C340.533 110.209 360.66 100.155 379.35 87.2293C398.04 74.3035 413.854 61.3777 428.231 45.5795C433.982 38.3985 438.295 32.6537 444.046 25.4727H383.663C379.35 31.2175 375.037 35.5261 370.724 39.8347C354.909 58.5053 334.782 72.8673 311.779 82.9207C290.214 92.9741 265.773 98.7189 241.332 98.7189C215.454 98.7189 192.451 92.9741 170.886 82.9207C149.32 72.8673 130.63 58.5053 114.816 39.8347C110.503 35.5261 107.627 29.7813 103.314 25.4727H42.9316Z" fill="#EFEAE1"/>
</svg>
