<svg width="351" height="354" viewBox="0 0 351 354" fill="none" xmlns="http://www.w3.org/2000/svg">
<path d="M-133.311 191.347C-141.937 217.198 -146.25 243.05 -146.25 267.465C-146.25 284.7 -143.375 304.807 -140.499 326.35H-80.1165C-84.4295 307.679 -85.8672 287.572 -85.8672 267.465C-85.8672 237.305 -81.5542 210.017 -72.928 185.602C-64.3019 159.75 -51.3627 138.207 -35.5482 120.973C-19.7337 102.302 -1.04378 89.3764 20.5215 79.323C42.0868 69.2696 65.0898 63.5248 90.9681 63.5248C115.409 63.5248 139.849 69.2696 161.415 79.323C184.418 89.3764 204.545 103.738 220.36 120.973C237.612 139.643 250.551 161.187 260.615 185.602C270.679 211.454 274.992 237.305 274.992 267.465C274.992 289.008 272.116 307.679 267.803 326.35H328.186L328.186 326.349C329.624 323.477 331.062 320.605 331.062 317.733C335.375 300.498 338.25 284.7 338.25 268.902C338.25 244.486 333.937 220.071 323.873 192.783C315.247 165.495 299.432 141.08 279.305 118.1C259.177 95.1212 233.299 76.4506 201.67 62.0886C171.478 46.2904 134.099 39.1094 92.4058 39.1094C50.7129 39.1094 14.7708 46.2904 -15.4206 60.6524C-45.612 75.0144 -70.0527 93.685 -90.1802 116.664C-110.308 139.644 -124.685 164.059 -133.311 191.347Z" fill="#EFEAE1"/>
</svg>
