<svg width="77" height="73" viewBox="0 0 77 73" fill="none" xmlns="http://www.w3.org/2000/svg">
<path d="M3.87934 48.4692C2.57697 52.3683 1.92578 56.2675 1.92578 59.9499C1.92578 62.5494 2.35991 65.582 2.79403 68.8312H11.9106C11.2595 66.0152 11.0424 62.9826 11.0424 59.9499C11.0424 55.401 11.6936 51.2853 12.996 47.6028C14.2983 43.7037 16.2519 40.4544 18.6396 37.855C21.0273 35.039 23.8491 33.0894 27.105 31.5731C30.3609 30.0568 33.8339 29.1903 37.7411 29.1903C41.4311 29.1903 45.1212 30.0568 48.3771 31.5731C51.8501 33.0894 54.889 35.2556 57.2767 37.855C59.8814 40.671 61.835 43.9203 63.3544 47.6028C64.8738 51.5019 65.525 55.401 65.525 59.9499C65.525 63.1992 65.0909 66.0152 64.4397 68.8312H73.5563L73.5564 68.8312C73.7734 68.398 73.9905 67.9648 73.9905 67.5316C74.6417 64.9321 75.0758 62.5493 75.0758 60.1666C75.0758 56.4841 74.4246 52.8016 72.9052 48.6859C71.6028 44.5701 69.2151 40.8876 66.1762 37.4218C63.1374 33.9559 59.2302 31.1399 54.4549 28.9737C49.8965 26.5909 44.2529 25.5078 37.9581 25.5078C31.6633 25.5078 26.2368 26.5909 21.6785 28.7571C17.1201 30.9232 13.4301 33.7393 10.3912 37.2051C7.35234 40.671 5.18172 44.3535 3.87934 48.4692Z" fill="#EFEAE1"/>
<path fill-rule="evenodd" clip-rule="evenodd" d="M6.48267 3.84375C7.13385 4.92684 8.0021 5.79331 8.65329 6.87639C11.6922 10.3423 15.3822 13.3749 19.9405 15.7577C24.4988 18.1405 29.9254 19.2236 36.2202 19.2236C40.5614 19.2236 44.4686 18.7903 47.7245 17.7073C51.4146 16.6242 54.4534 15.1078 57.2752 13.1583C60.097 11.2087 62.4847 9.25918 64.6554 6.87639C65.5236 5.79331 66.1748 4.92684 67.043 3.84375H57.9264C57.2752 4.71022 56.6241 5.36007 55.9729 6.00992C53.5852 8.82595 50.5463 10.9921 47.0733 12.5084C43.8174 14.0248 40.1273 14.8912 36.4373 14.8912C32.5301 14.8912 29.0571 14.0248 25.8012 12.5084C22.5453 10.9921 19.7235 8.82595 17.3358 6.00992C16.6846 5.36007 16.2505 4.4936 15.5993 3.84375H6.48267Z" fill="#EFEAE1"/>
</svg>
