<svg width="151" height="246" viewBox="0 0 151 246" fill="none" xmlns="http://www.w3.org/2000/svg">
<path d="M13.0457 163.334C8.66497 176.473 6.47461 189.613 6.47461 202.022C6.47461 210.782 7.93486 221.002 9.3951 231.951H40.0601C37.8697 222.461 37.1396 212.242 37.1396 202.022C37.1396 186.693 39.33 172.823 43.7107 160.414C48.0914 147.275 54.6625 136.325 62.6938 127.565C70.7251 118.076 80.2166 111.506 91.1684 106.396C102.12 101.286 113.802 98.3665 126.944 98.3665C139.356 98.3665 151.768 101.286 162.72 106.396C174.402 111.506 184.624 118.806 192.655 127.565C201.416 137.055 207.987 148.005 213.098 160.414C218.209 173.553 220.399 186.693 220.399 202.022C220.399 212.972 218.939 222.461 216.749 231.951H247.414L247.414 231.951C248.144 230.491 248.874 229.031 248.874 227.571C251.064 218.812 252.525 210.782 252.525 202.752C252.525 190.343 250.334 177.933 245.223 164.064C240.843 150.194 232.811 137.785 222.59 126.105C212.368 114.426 199.226 104.936 183.163 97.6365C167.831 89.6069 148.848 85.957 127.674 85.957C106.501 85.957 88.2479 89.6069 72.9154 96.9066C57.5829 104.206 45.1709 113.696 34.9493 125.375C24.7276 137.055 17.4264 149.464 13.0457 163.334Z" fill="#EFEAE1"/>
<path fill-rule="evenodd" clip-rule="evenodd" d="M21.8027 12.9492C23.9931 16.5991 26.9136 19.519 29.1039 23.1688C39.3256 34.8483 51.7376 45.0679 67.0701 53.0976C82.4026 61.1273 100.656 64.7771 121.829 64.7771C136.431 64.7771 149.574 63.3172 160.525 59.6673C172.937 56.0175 183.159 50.9077 192.65 44.3379C202.142 37.7682 210.173 31.1985 217.475 23.1688C220.395 19.519 222.585 16.5991 225.506 12.9492H194.841C192.65 15.8691 190.46 18.059 188.27 20.2489C180.238 29.7385 170.017 37.0382 158.335 42.148C147.383 47.2578 134.971 50.1777 122.559 50.1777C109.417 50.1777 97.7351 47.2578 86.7833 42.148C75.8315 37.0382 66.34 29.7385 58.3087 20.2489C56.1183 18.059 54.6581 15.1391 52.4677 12.9492H21.8027Z" fill="#EFEAE1"/>
</svg>
