<svg width="37" height="15" viewBox="0 0 37 15" fill="none" xmlns="http://www.w3.org/2000/svg">
<path d="M8.97138 0.921888V13.9029C8.97186 13.9325 8.96459 13.9616 8.9503 13.9875C8.936 14.0135 8.91517 14.0352 8.88984 14.0507C8.86452 14.0662 8.83558 14.0749 8.80586 14.0759C8.77614 14.0769 8.74667 14.0702 8.72034 14.0565L6.25941 12.8315C6.23083 12.8175 6.20676 12.7958 6.18992 12.7689C6.17308 12.7419 6.16412 12.7109 6.16406 12.6792V2.14681C6.16412 2.11511 6.17308 2.08405 6.18992 2.05713C6.20676 2.03022 6.23083 2.00851 6.25941 1.99444L8.72034 0.769523C8.74658 0.755832 8.77594 0.749136 8.80555 0.750089C8.83517 0.751042 8.86403 0.759611 8.88932 0.77496C8.91461 0.79031 8.93546 0.811914 8.94985 0.837665C8.96423 0.863417 8.97165 0.892435 8.97138 0.921888Z" fill="#B2B1AE"/>
<path d="M28.3581 5.57661V13.9063C28.3582 13.9354 28.3507 13.9641 28.3364 13.9895C28.3222 14.0149 28.3016 14.0363 28.2767 14.0516C28.2517 14.0669 28.2233 14.0756 28.194 14.0768C28.1647 14.078 28.1356 14.0718 28.1095 14.0587L25.6461 12.8337C25.6175 12.8197 25.5935 12.798 25.5766 12.771C25.5598 12.7441 25.5508 12.7131 25.5508 12.6814V5.57661C25.5508 5.53143 25.5688 5.4881 25.601 5.45615C25.6331 5.4242 25.6767 5.40625 25.7222 5.40625H28.1867C28.2322 5.40625 28.2758 5.4242 28.3079 5.45615C28.34 5.4881 28.3581 5.53143 28.3581 5.57661Z" fill="#B2B1AE"/>
<path d="M24.9854 13.6142L24.9371 13.6502C24.7764 13.7666 24.6035 13.8655 24.4216 13.9453C24.2823 14.006 24.1382 14.055 23.9906 14.0917C23.5759 14.1981 23.1422 14.2087 22.7227 14.1228C22.3032 14.0369 21.909 13.8567 21.5704 13.596C21.2318 13.3353 20.9577 13.0011 20.7691 12.6189C20.5805 12.2368 20.4825 11.8168 20.4824 11.3911V5.60005C20.4824 5.55507 20.5003 5.51192 20.5322 5.48001C20.5641 5.44809 20.6074 5.43 20.6526 5.42969L22.2341 5.45488H23.1142C23.1238 5.45396 23.1335 5.45396 23.1432 5.45488C23.1819 5.46263 23.2168 5.48347 23.2419 5.51386C23.267 5.54426 23.2807 5.58234 23.2808 5.62164V7.63478C23.2799 7.64556 23.2799 7.65639 23.2808 7.66717V12.2033C23.2799 12.2141 23.2799 12.2249 23.2808 12.2357C23.2896 12.5733 23.4307 12.8941 23.674 13.1299C23.9173 13.3656 24.2436 13.4976 24.5834 13.4978H24.855H24.9238C24.9385 13.4948 24.9537 13.4966 24.9672 13.5029C24.9807 13.5093 24.9918 13.5198 24.9987 13.533C25.0057 13.5461 25.0082 13.5611 25.0057 13.5758C25.0033 13.5905 24.9962 13.6039 24.9854 13.6142Z" fill="#B2B1AE"/>
<path d="M5.54615 6.45733C5.39261 6.39612 5.22869 6.36476 5.06326 6.36496H4.86648C4.6948 6.36496 4.5248 6.39862 4.36623 6.46402C4.20766 6.52942 4.06364 6.62527 3.94241 6.74608C3.82118 6.86689 3.72513 7.01029 3.65976 7.16805C3.59439 7.32581 3.56099 7.49484 3.56146 7.66546V12.2016C3.5621 12.5452 3.69988 12.8744 3.94455 13.1171C4.18921 13.3598 4.52079 13.4961 4.86648 13.4961H5.13811H5.20692C5.22152 13.4946 5.23622 13.4978 5.24889 13.5051C5.26155 13.5125 5.27151 13.5237 5.27731 13.5371C5.28311 13.5505 5.28444 13.5654 5.28112 13.5796C5.27779 13.5938 5.26998 13.6066 5.25883 13.6161L5.21054 13.6521C4.79159 13.954 4.2968 14.135 3.78084 14.175C3.26488 14.2149 2.74785 14.1124 2.28687 13.8786C1.8259 13.6448 1.43893 13.289 1.16875 12.8503C0.898558 12.4117 0.755665 11.9073 0.75586 11.393V8.29171C0.75586 6.74767 2.02828 5.44477 3.58078 5.45317C4.31865 5.45747 5.02497 5.75109 5.54615 6.27018C5.5715 6.29537 5.59806 6.32297 5.62221 6.35056C5.63123 6.36215 5.63627 6.37631 5.63659 6.39096C5.6369 6.40561 5.63248 6.41997 5.62396 6.43193C5.61544 6.44389 5.60328 6.45281 5.58927 6.45739C5.57526 6.46196 5.56015 6.46194 5.54615 6.45733Z" fill="#B2B1AE"/>
<path d="M36.2773 11.2724C36.2773 12.037 36.0681 12.6701 35.6496 13.1715C35.5868 13.2435 35.5288 13.3107 35.4552 13.3779C34.959 13.8578 34.3228 14.1157 33.5502 14.1649C33.548 14.1661 33.5455 14.1667 33.5429 14.1667C33.5404 14.1667 33.5379 14.1661 33.5357 14.1649L33.4633 14.1709C33.4126 14.1709 33.3607 14.1709 33.3087 14.1709H33.1639C32.6665 14.1538 32.1717 14.0932 31.685 13.9898L31.615 13.9754C31.255 13.8827 30.9025 13.7643 30.5602 13.621C30.3061 13.5148 30.1459 13.2653 30.1343 12.9901L30.0665 11.3728C30.0643 11.3207 30.106 11.2772 30.1582 11.2772C30.2276 11.2772 30.2908 11.3164 30.3231 11.3778C30.665 12.0289 31.1124 12.6199 31.6476 13.1272C32.0999 13.5543 32.5731 13.8082 33.0673 13.889C33.1818 13.9078 33.2977 13.917 33.4138 13.9166C33.4717 13.9166 33.5345 13.9166 33.5876 13.9094H33.6166C33.6372 13.9091 33.6578 13.9071 33.6782 13.9034C33.7864 13.8936 33.893 13.8706 33.9957 13.835C34.0389 13.8231 34.0812 13.8082 34.1224 13.7906C34.155 13.7774 34.1876 13.7642 34.2178 13.7486C34.2685 13.7234 34.3144 13.697 34.3614 13.6682C34.4949 13.5821 34.6138 13.4756 34.714 13.3527C34.741 13.3225 34.7664 13.2908 34.79 13.2579C34.813 13.2231 34.8371 13.1907 34.8576 13.1571C34.9328 12.9817 34.9695 12.7923 34.9651 12.6017C34.9748 12.4034 34.9333 12.2059 34.8446 12.0281C34.7558 11.8502 34.6227 11.6978 34.458 11.5855C34.0121 11.3035 33.5228 11.096 33.0093 10.9713C32.5498 10.8524 32.0995 10.7004 31.6621 10.5166C31.4381 10.4137 31.226 10.287 31.0295 10.1386C30.9728 10.0979 30.916 10.0511 30.8593 10.0055C30.3482 9.58477 30.0927 8.93252 30.0927 8.04873C30.0912 7.76342 30.1364 7.47977 30.2267 7.20892C30.2388 7.17653 30.2508 7.14413 30.2653 7.11174C30.3077 7.00204 30.3569 6.89506 30.4126 6.79141C30.4126 6.78542 30.4186 6.77822 30.4223 6.77102C30.5456 6.55933 30.6961 6.36453 30.8701 6.19155C31.2404 5.825 31.7141 5.57898 32.2283 5.48611C32.4791 5.43671 32.7343 5.4126 32.99 5.41413C33.1337 5.41413 33.2834 5.42133 33.4319 5.43573C33.6897 5.46067 33.9455 5.50356 34.1973 5.5641C34.2066 5.56761 34.2163 5.57003 34.2262 5.5713C34.289 5.58689 34.3602 5.60489 34.4363 5.62768C34.8605 5.75511 35.2734 5.91696 35.6709 6.1116C35.6748 6.11354 35.6773 6.11756 35.6773 6.12197L35.7123 7.11294L35.7394 7.91587C35.7411 7.96555 35.7013 8.00673 35.6516 8.00673C35.5871 8.00673 35.5279 7.97135 35.4965 7.91504C35.278 7.5237 35.0289 7.15 34.7514 6.79741C34.6262 6.63837 34.4924 6.48618 34.3506 6.34152L34.318 6.30913C33.8898 5.88362 33.4246 5.67087 32.9224 5.67087C32.4202 5.67087 32.0303 5.78605 31.7526 6.01639C31.6188 6.12944 31.5125 6.27122 31.4418 6.43103C31.3711 6.59085 31.3379 6.76453 31.3446 6.93898C31.3385 7.11778 31.3814 7.29487 31.4685 7.45141C31.5557 7.60795 31.6839 7.73808 31.8395 7.82798C32.2191 8.05439 32.6299 8.22454 33.0588 8.33306C33.1434 8.35466 33.2218 8.37625 33.3003 8.39785C33.6504 8.49262 33.8858 8.55981 34.0113 8.6006C34.1627 8.64859 34.3506 8.71497 34.5751 8.79975C34.7677 8.86923 34.9522 8.95892 35.1256 9.06729C35.2854 9.17315 35.4368 9.29107 35.5783 9.42001C35.7304 9.55245 35.8569 9.71143 35.9514 9.8891C36.1784 10.3145 36.2907 10.791 36.2773 11.2724Z" fill="#B2B1AE"/>
<path d="M19.0821 9.90103C19.0821 9.86864 19.0821 9.83624 19.0821 9.80385C19.0821 9.77146 19.0821 9.71747 19.0821 9.67428C19.0821 9.63109 19.0821 9.6119 19.0821 9.5807C19.0821 9.51472 19.0749 9.44753 19.0676 9.38155L19.0604 9.30837L19.0532 9.25198C19.0532 9.21599 19.0483 9.18 19.0387 9.144C19.0387 9.10801 19.0278 9.07202 19.0206 9.03723C19.0133 9.00244 19.0121 8.99044 19.0073 8.96645C19.0024 8.94245 18.9952 8.90286 18.988 8.87047C18.9699 8.78409 18.9481 8.69891 18.924 8.61373L18.895 8.51535L18.8612 8.41337C18.8503 8.37978 18.8383 8.34739 18.8262 8.3138C18.802 8.24781 18.7767 8.18183 18.7489 8.11584L18.7163 8.03906C18.6982 7.99707 18.6789 7.95508 18.6584 7.91909C18.6379 7.88309 18.6113 7.82071 18.5847 7.77392C18.5316 7.67074 18.4725 7.56877 18.4097 7.47039C18.3916 7.4404 18.3723 7.4116 18.353 7.38281C18.3192 7.33242 18.2854 7.28323 18.2491 7.23404L18.1972 7.16326L18.1646 7.12127C18.1453 7.09608 18.126 7.07088 18.1055 7.04689C18.0173 6.93891 17.9256 6.83454 17.8278 6.73616L17.7626 6.67137C17.7095 6.61978 17.6564 6.5694 17.6009 6.52141C17.5755 6.49741 17.5489 6.47462 17.5224 6.45302L17.5043 6.43743C17.4568 6.39744 17.4085 6.35745 17.3594 6.31745L17.2761 6.25507C17.1916 6.19268 17.1047 6.1339 17.0153 6.07871C16.9864 6.06071 16.9562 6.04152 16.926 6.02472L16.8355 5.97193C16.8041 5.95394 16.7739 5.93714 16.7425 5.92155C16.7111 5.90595 16.6809 5.88915 16.6496 5.87356C16.6182 5.85796 16.5856 5.84236 16.5542 5.82677C16.5228 5.81117 16.4902 5.79677 16.4576 5.78358L16.361 5.74159C16.2946 5.71399 16.2294 5.6888 16.1618 5.6648L16.0616 5.63001L15.959 5.59762L15.8564 5.56763C15.7876 5.54843 15.7176 5.53044 15.6476 5.51484L15.563 5.49684L15.4351 5.47285C15.3626 5.45965 15.2914 5.44885 15.2178 5.44046L15.1091 5.42726L14.9498 5.41406H14.9136H14.7759H14.5779H14.4657C13.7757 5.4436 13.1023 5.63319 12.4993 5.96766C11.8963 6.30212 11.3804 6.77219 10.9929 7.34025C10.6054 7.90832 10.357 8.55862 10.2677 9.23915C10.1783 9.91967 10.2505 10.6115 10.4783 11.2594C10.7062 11.9072 11.0834 12.4931 11.5799 12.9701C12.0764 13.4472 12.6783 13.8021 13.3376 14.0066C13.9968 14.2111 14.695 14.2594 15.3764 14.1477C16.0578 14.0361 16.7034 13.7675 17.2616 13.3634L17.3316 13.3106C17.3884 13.2675 17.4451 13.2255 17.4982 13.1811C17.5163 13.1679 17.5332 13.1535 17.5514 13.1379L17.5948 13.0971L17.6081 13.0863C17.6128 13.0831 17.6173 13.0795 17.6214 13.0755C17.6769 13.0263 17.7312 12.9747 17.7844 12.9219C18.0319 12.6757 18.2496 12.4015 18.433 12.105C18.4359 12.1003 18.4374 12.0943 18.434 12.09C18.4322 12.0878 18.4299 12.0861 18.4272 12.085C18.4245 12.0839 18.4217 12.0835 18.4188 12.0839C18.416 12.0842 18.4132 12.0853 18.4109 12.0869L18.3964 12.0977L18.2576 12.2237C17.9732 12.5074 17.6342 12.7311 17.2609 12.8816C16.8875 13.0321 16.4874 13.1062 16.0846 13.0995C15.6116 13.0998 15.1452 12.989 14.7236 12.7761C14.3019 12.5632 13.9368 12.2543 13.658 11.8746C13.5492 11.7291 13.4546 11.5736 13.3755 11.4103C13.1783 11.0052 13.0764 10.5609 13.0774 10.111V9.90103H19.0821ZM14.584 5.81477C14.9823 5.81572 15.364 5.97364 15.6453 6.25387C15.9266 6.53411 16.0846 6.91379 16.0846 7.30963V9.72947H13.0798V7.30963C13.0798 6.91317 13.2383 6.53294 13.5203 6.2526C13.8024 5.97226 14.185 5.81477 14.584 5.81477Z" fill="#B2B1AE"/>
</svg>
