<svg width="1220" height="132" viewBox="0 0 1220 132" fill="none" xmlns="http://www.w3.org/2000/svg">
<path d="M1202.94 11.9166H1209.73V118.965H1209.05L1125.46 36.8036H1124.78V116.919H1117.99V9.87109H1119.01L1202.26 92.3733H1202.94V11.9166Z" fill="white"/>
<path d="M1082.99 117.26V70.5546H1053.08V76.6911H1069.73V103.965C1064.98 107.033 1060.56 109.078 1055.8 110.442C1051.04 111.806 1045.95 112.488 1039.83 112.488C1032.02 112.488 1024.88 111.124 1019.1 108.737C1013.33 106.351 1008.23 102.942 1004.49 98.8508C1000.75 94.4188 997.696 89.3051 995.657 83.5094C993.958 77.7138 992.938 71.2364 992.938 64.0771C992.938 57.2587 993.958 50.7813 995.657 44.9857C997.696 39.1901 1000.41 34.4172 1004.15 29.9853C1007.89 25.5533 1012.31 22.4851 1017.74 20.0986C1023.18 17.7122 1029.3 16.6895 1036.43 16.6895C1041.19 16.6895 1045.61 17.0304 1050.03 18.735C1054.1 19.4168 1057.84 20.7805 1060.9 22.4851C1063.96 23.8487 1066.68 25.8943 1068.71 27.9398C1070.75 29.9853 1072.11 32.0308 1072.79 34.0763H1083.67C1082.65 31.6899 1080.95 29.3034 1078.91 26.5761C1076.53 23.8487 1073.81 21.1214 1070.07 18.735C1066.34 16.3485 1061.58 14.303 1056.14 12.5984C1050.7 10.8938 1044.25 9.87109 1036.77 9.87109C1028.28 9.87109 1020.46 11.2348 1013.33 13.6212C1006.19 16.0076 1000.07 19.4168 994.977 23.8487C989.54 28.2807 985.802 34.0763 982.744 40.5537C979.686 47.0312 978.327 54.5314 978.327 62.7134C978.327 69.8727 979.686 76.6911 981.725 83.5094C983.764 90.3278 987.162 96.1234 991.919 101.578C996.676 106.692 1002.79 111.124 1009.93 114.192C1017.06 117.26 1025.9 118.965 1035.75 118.965C1043.23 118.965 1050.03 118.283 1055.8 116.579C1061.58 114.874 1066.34 113.169 1070.07 111.124V117.26H1082.99Z" fill="white"/>
<path d="M929.395 13.6212H942.987V118.965H929.395V13.6212Z" fill="white"/>
<path d="M826.094 90.6687H815.9C816.24 94.7598 817.26 98.8508 819.638 103.283C821.677 106.692 824.735 109.76 828.133 112.147C831.871 114.533 835.949 116.579 840.706 117.942C845.463 119.306 850.56 119.988 856.337 119.988C862.114 119.988 867.211 119.306 871.968 117.942C876.725 116.579 880.463 114.533 883.861 111.806C887.259 109.078 889.978 106.01 891.677 102.26C893.376 98.5099 894.395 94.4188 894.395 89.9869C894.395 83.5094 892.696 78.3957 889.638 74.6456C886.58 70.5546 882.842 67.4863 878.085 64.7589C873.327 62.0316 868.23 59.6452 862.793 57.9406C861.06 57.2884 859.361 56.6708 857.696 56.0659C854.141 54.7734 850.743 53.5383 847.502 52.145C842.745 50.0995 839.007 48.0539 835.949 45.3266C832.891 42.9402 831.192 39.531 831.192 35.099C831.192 32.7126 831.531 30.3262 832.551 28.2807C833.91 26.2352 835.269 24.1897 837.308 22.826C839.687 21.1214 842.065 20.0986 845.124 19.0759C847.842 18.0531 851.58 17.7122 855.318 17.7122C862.114 17.7122 867.551 19.0759 871.968 21.8032C876.725 24.5306 879.444 28.9625 880.123 34.7581H890.318C889.638 31.008 888.279 27.9398 886.24 24.8715C884.201 21.8032 881.483 19.4168 878.424 17.3713C875.366 15.3258 871.628 13.6212 867.551 12.5984C863.473 11.5757 859.395 10.8938 854.978 10.8938C850.221 10.8938 845.803 11.2348 841.725 12.5984C837.648 13.6212 833.91 15.3258 830.852 17.7122C827.794 20.0986 825.415 23.1669 823.376 26.5761C821.677 29.9853 820.658 34.0763 820.658 38.5082C820.658 44.3038 822.017 49.0767 825.075 52.8268C828.133 56.236 831.871 59.3042 836.289 61.6907C841.046 64.0771 845.803 66.1226 851.24 67.8272C856.337 69.5318 861.434 71.5773 865.852 73.6228C870.609 75.6683 874.347 78.3957 877.405 81.4639C880.463 84.5322 881.822 88.9641 881.822 94.0779C881.822 100.555 879.444 105.328 874.686 108.396C869.929 111.465 863.473 112.828 855.657 112.828C849.201 112.828 844.104 112.147 840.366 110.442C836.289 108.737 833.57 106.692 831.531 104.305C829.492 101.919 828.133 99.5326 827.454 97.1462C826.434 94.4188 826.094 92.3733 826.094 90.6687Z" fill="white"/>
<path d="M719.736 11.9166H787.697V20.0986H733.668V57.9406H780.221V64.7589H733.668V109.078H787.697V117.26H719.736V11.9166Z" fill="white"/>
<path fill-rule="evenodd" clip-rule="evenodd" d="M593.329 11.9166V117.26H629.688C637.163 117.26 644.299 116.238 650.755 113.51C657.552 111.124 663.328 107.374 668.086 102.601C672.843 97.828 676.92 92.3733 679.639 85.8959C682.697 79.4184 684.056 72.2591 684.056 64.418C684.056 56.9178 682.697 50.0995 679.979 43.622C677.26 37.1446 673.522 31.6899 668.425 26.917C663.668 22.1442 657.552 18.735 650.755 16.0076C643.959 13.2803 636.144 11.9166 627.989 11.9166H593.329ZM623.571 110.442H606.921V18.3941H623.571C631.047 18.3941 637.503 19.7577 643.28 22.1442C649.057 24.5306 653.814 27.9398 657.552 32.3717C661.289 36.4627 664.348 41.5765 666.387 47.0312C668.425 52.4859 669.445 58.2815 669.445 64.418C669.445 69.8727 668.425 75.3274 666.726 80.7821C665.027 86.2368 662.309 91.0097 658.571 95.4416C654.833 99.8735 650.076 103.624 644.299 106.351C638.862 109.078 631.727 110.442 623.571 110.442Z" fill="white"/>
<path d="M468.62 117.26H454.689V20.0986H414.592V11.9166H508.717V20.0986H468.62V117.26Z" fill="white"/>
<path d="M247.408 11.9166H261V117.26H247.408V11.9166Z" fill="white"/>
<path d="M100.952 82.8276C98.9135 88.9641 97.8941 95.1007 97.8941 100.896C97.8941 104.694 98.4796 109.078 99.1072 113.778C99.1557 114.141 99.2045 114.507 99.2533 114.874H113.525C112.506 110.442 112.166 105.669 112.166 100.896C112.166 93.737 113.185 87.2596 115.224 81.4639C117.263 75.3274 120.321 70.2136 124.059 66.1226C127.797 61.6907 132.214 58.6224 137.311 56.236C142.408 53.8496 147.845 52.4859 153.962 52.4859C159.738 52.4859 165.515 53.8496 170.612 56.236C176.049 58.6224 180.806 62.0316 184.544 66.1226C188.622 70.5546 191.68 75.6683 194.059 81.4639C196.437 87.6005 197.457 93.737 197.457 100.896C197.457 106.01 196.777 110.442 195.758 114.874H210.029C210.369 114.192 210.709 113.51 210.709 112.828C211.729 108.737 212.408 104.987 212.408 101.237C212.408 95.4416 211.389 89.646 209.01 83.1685C206.971 76.6911 203.233 70.8955 198.476 65.4408C193.719 59.9861 187.602 55.5541 180.127 52.145C172.991 48.3949 164.156 46.6903 154.302 46.6903C144.447 46.6903 135.952 48.3949 128.816 51.804C121.68 55.2132 115.904 59.6452 111.146 65.0999C106.389 70.5546 102.991 76.3502 100.952 82.8276Z" fill="white"/>
<path fill-rule="evenodd" clip-rule="evenodd" d="M23.8168 117.26V73.2819C26.5352 73.9637 29.2536 74.6456 32.3119 75.3274C35.3701 75.6683 38.4284 76.0092 42.1662 76.0092C48.2827 76.0092 53.7195 74.9865 58.4768 73.2819C62.8943 71.5773 66.9719 69.5318 70.0301 66.4635C73.0884 63.3953 75.467 59.9861 77.166 56.236C78.8651 52.145 79.5447 48.0539 79.5447 43.622C79.5447 39.531 78.8651 35.44 77.5058 31.6899C76.1466 27.5988 74.1078 24.1897 71.0496 21.4623C68.3311 18.735 64.9331 16.3485 60.5156 14.6439C56.0982 12.9394 51.0011 11.9166 45.2244 11.9166H10.2246V117.26H23.8168ZM23.8168 67.1454V18.735H39.108C43.5254 18.735 47.2633 19.7577 50.3215 21.1214C53.3797 22.826 56.0982 24.8715 58.137 27.2579C60.1758 29.6444 61.8748 32.3717 62.8943 35.44C63.9137 38.1673 64.5933 41.2356 64.5933 44.3038C64.5933 47.0312 64.2535 50.0995 63.2341 53.1677C62.5545 55.8951 60.8554 58.6224 58.8166 61.0088C56.7778 63.3953 54.0593 65.4408 51.0011 66.8045C47.9429 68.509 43.8652 69.1909 39.4478 69.1909C36.3895 69.1909 33.6711 69.1909 30.9527 68.85C28.2342 68.509 25.8556 67.8272 23.8168 67.1454Z" fill="white"/>
<path d="M387.067 11.5757H380.611V92.0324H379.932L296.68 9.87109H296V116.919H302.796V36.4627H303.476L386.388 118.965H387.067V11.5757Z" fill="white"/>
<path d="M106.707 14.9841C106.112 14.217 105.518 13.45 105.008 12.5977H119.28C119.789 13.109 120.214 13.7056 120.639 14.3022C121.064 14.8988 121.488 15.4955 121.998 16.0068C125.736 20.4388 130.153 23.848 135.25 26.2344C140.348 28.6208 145.784 29.9845 151.901 29.9845C157.678 29.9845 163.454 28.6208 168.551 26.2344C173.988 23.848 178.746 20.4388 182.483 16.0068C183.503 14.9841 184.522 13.9613 185.542 12.5977H199.813C199.134 13.45 198.539 14.217 197.945 14.9841C197.35 15.7512 196.755 16.5182 196.076 17.3705C192.678 21.1206 188.94 24.1889 184.522 27.2571C180.105 30.3254 175.348 32.7118 169.571 34.4164C164.474 36.121 158.357 36.8029 151.561 36.8029C141.707 36.8029 133.212 35.0983 126.076 31.3482C118.94 27.5981 113.163 22.8252 108.406 17.3705C107.896 16.5182 107.301 15.7512 106.707 14.9841Z" fill="white"/>
</svg>
