<svg width="345" height="464" viewBox="0 0 345 464" fill="none" xmlns="http://www.w3.org/2000/svg">
<path d="M27.7547 350.057C18.4352 377.977 13.7754 405.897 13.7754 432.266C13.7754 450.879 16.8819 472.594 19.9884 495.861H85.2252C80.5654 475.697 79.0122 453.981 79.0122 432.266C79.0122 399.693 83.6719 370.222 92.9915 343.853C102.311 315.933 116.29 292.667 133.376 274.053C150.462 253.889 170.654 239.929 193.953 229.071C217.252 218.214 242.104 212.009 270.063 212.009C296.468 212.009 322.873 218.214 346.172 229.071C371.024 239.929 392.77 255.44 409.856 274.053C428.495 294.218 442.474 317.484 453.347 343.853C464.22 371.773 468.88 399.693 468.88 432.266C468.88 455.532 465.773 475.697 461.113 495.861H526.35C527.903 492.759 529.457 489.657 529.457 486.554C534.116 467.941 537.223 450.879 537.223 433.817C537.223 407.448 532.563 381.079 521.69 351.609C512.371 322.138 495.285 295.769 473.539 270.951C451.794 246.134 423.835 225.969 389.663 210.458C357.045 193.396 316.66 185.641 271.616 185.641C226.572 185.641 187.74 193.396 155.122 208.907C122.503 224.418 96.098 244.583 74.3524 269.4C52.6068 294.218 37.0742 320.587 27.7547 350.057Z" fill="#715B4B"/>
<path fill-rule="evenodd" clip-rule="evenodd" d="M46.3828 30.5117C51.0426 38.2672 57.2556 44.4717 61.9154 52.2272C83.661 77.0449 110.066 98.7603 142.685 115.823C175.303 132.885 214.135 140.64 259.179 140.64C290.245 140.64 318.203 137.538 341.502 129.782C367.908 122.027 389.653 111.169 409.845 97.2092C430.038 83.2493 447.124 69.2894 462.656 52.2272C468.869 44.4717 473.529 38.2672 479.742 30.5117H414.505C409.845 36.7161 405.186 41.3695 400.526 46.0228C383.44 66.1871 361.694 81.6982 336.842 92.5559C313.543 103.414 287.138 109.618 260.733 109.618C232.774 109.618 207.922 103.414 184.623 92.5559C161.324 81.6982 141.132 66.1871 124.046 46.0228C119.386 41.3695 116.279 35.165 111.62 30.5117H46.3828Z" fill="#715B4B"/>
</svg>
