<svg width="48" height="48" viewBox="0 0 48 48" fill="none" xmlns="http://www.w3.org/2000/svg">
<path d="M6 20.9756C6 11.6002 13.6002 4 22.9756 4H25.0244C34.3998 4 42 11.6002 42 20.9756C42 25.6926 39.866 30.1415 36.3282 33.2613C34.1741 35.161 31.8068 37.333 30 39.2143C28.5831 40.6896 26.7985 42.7278 25.5453 44.1845C24.7338 45.1278 23.2662 45.1278 22.4547 44.1845C21.2015 42.7278 19.4169 40.6896 18 39.2143C16.1932 37.333 13.8259 35.161 11.6718 33.2613C8.134 30.1415 6 25.6926 6 20.9756Z" fill="#41342B"/>
<path fill-rule="evenodd" clip-rule="evenodd" d="M24 15.9348L29 19.8237V27.0013L26 27.0013V23.0013V22.0013H25H23H22V23.0013V27.0013L19 27.0013V19.8237L24 15.9348ZM23 27.0013H25V23.0013H23V27.0013ZM22 28.0013L19 28.0013H18V27.0013V19.3346L24 14.668L30 19.3346V27.0013V28.0013H29L26 28.0013H25H23H22Z" fill="#F8F6F2"/>
</svg>
