<svg width="600" height="55" viewBox="0 0 600 55" fill="none" xmlns="http://www.w3.org/2000/svg">
<path fill-rule="evenodd" clip-rule="evenodd" d="M6.77966 4.57236V28.8097C7.79661 29.1486 8.98305 29.4876 10.339 29.6571C11.6949 29.8266 13.0508 29.8266 14.5763 29.8266C16.7797 29.8266 18.8136 29.4876 20.339 28.6402C21.8644 27.7927 23.2203 26.9452 24.2373 25.7588C25.2542 24.5724 26.1017 23.2164 26.4407 21.8605C26.9492 20.3351 27.1186 18.9791 27.1186 17.4537C27.1186 15.9283 26.7797 14.4029 26.2712 13.0469C25.7627 11.5215 25.0847 10.1656 23.8983 8.97914C22.8814 7.7927 21.5254 6.77575 20 5.9283C18.6441 5.08084 16.7797 4.57236 14.5763 4.57236H6.77966ZM6.77966 31.8605V53.7249H0V1.35203H17.4576C20.339 1.35203 22.8814 1.69101 24.9153 2.53847C27.1186 3.38592 28.8136 4.57236 30.1695 5.9283C31.6949 7.28423 32.7119 8.97914 33.3898 11.013C34.0678 12.8774 34.4068 14.9113 34.4068 16.9452C34.4068 19.1486 34.0678 21.1825 33.2203 23.2164C32.3729 25.0808 31.1864 26.7758 29.661 28.3012C28.1356 29.8266 26.1017 30.8436 23.8983 31.691C21.5254 32.5385 18.8136 32.8774 15.7627 32.8774C13.8983 32.8774 12.3729 32.708 10.8475 32.5385C9.49153 32.5385 8.13559 32.1995 6.77966 31.8605ZM599.492 1.01304H596.102V41.013H595.763L554.407 -0.00390625H554.068V53.2164H557.458V13.2164H557.797L599.153 54.0639H599.492V1.01304ZM537.966 29.9961V53.2164H531.525V50.1656C529.661 51.1825 527.288 52.03 524.407 52.8774C521.525 53.7249 518.136 54.0639 514.407 54.0639C509.492 54.0639 505.085 53.2164 501.525 51.691C497.966 50.1656 494.915 47.9622 492.712 45.4198C490.339 42.708 488.644 39.8266 487.627 36.6063C486.61 33.2164 485.932 29.8266 485.932 26.2673C485.932 22.1995 486.61 18.4707 488.136 15.2503C489.661 12.03 491.525 9.14864 494.237 6.94525C496.78 4.74186 499.831 3.04694 503.39 1.8605C506.949 0.67406 510.848 -0.00390625 515.085 -0.00390625C518.814 -0.00390625 522.034 0.335077 524.576 1.18253C527.288 2.02999 529.661 3.04694 531.525 4.23338C533.39 5.41982 534.746 6.77575 535.932 8.13169C536.949 9.48762 537.797 10.6741 538.305 11.8605H532.881C532.542 10.8436 531.864 9.8266 530.847 8.80965C529.831 7.7927 528.475 6.77575 526.949 6.09779C525.424 5.25033 523.559 4.57236 521.525 4.23338C519.492 3.72491 517.288 3.55542 514.915 3.55542C511.356 3.55542 508.305 4.06389 505.593 5.25033C502.881 6.43677 500.678 7.96219 498.814 10.1656C496.949 12.1995 495.593 14.7419 494.576 17.6232C493.729 20.5046 493.22 23.7249 493.22 27.1147C493.22 30.6741 493.729 33.7249 494.576 36.7758C495.593 39.6571 497.119 42.1995 498.983 44.2334C500.847 46.2673 503.39 47.9622 506.271 49.1486C509.153 50.3351 512.712 51.013 516.61 51.013C519.661 51.013 522.203 50.6741 524.576 49.9961C526.949 49.3181 529.153 48.3012 531.525 46.7758V33.2164H523.22V30.1656H537.966V29.9961ZM469.831 1.8605H463.051V54.0639H469.831V1.8605ZM407.458 39.9961H412.542C412.542 40.8436 412.712 41.8605 413.22 43.2164C413.559 44.4029 414.237 45.5893 415.254 46.7758C416.271 47.9622 417.627 48.9791 419.661 49.8266C421.525 50.6741 424.068 51.013 427.119 51.013C431.017 51.013 434.237 50.3351 436.61 48.8097C438.983 47.2842 440.17 44.9113 440.17 41.691C440.17 39.1486 439.492 37.1147 437.966 35.4198C436.441 33.7249 434.576 32.5385 432.373 31.5215C430.169 30.5046 427.627 29.4876 425.085 28.6402C422.373 27.7927 420 26.7758 417.627 25.5893C415.424 24.4029 413.559 22.8774 412.034 21.1825C410.508 19.3181 409.831 16.9452 409.831 14.0639C409.831 11.8605 410.339 9.8266 411.186 8.13169C412.203 6.43677 413.39 4.91135 414.915 3.72491C416.441 2.53847 418.305 1.69101 420.339 1.18253C422.373 0.504568 424.576 0.335077 426.949 0.335077C429.153 0.335077 431.186 0.67406 433.22 1.18253C435.254 1.69101 437.119 2.36897 438.644 3.55542C440.169 4.57236 441.525 5.75881 442.542 7.28423C443.559 8.80965 444.237 10.3351 444.576 12.1995H439.492C439.153 9.31813 437.797 7.11474 435.424 5.75881C433.22 4.40287 430.508 3.72491 427.288 3.72491C425.424 3.72491 423.559 3.8944 422.203 4.40287C420.678 4.91135 419.492 5.41982 418.475 6.26728C417.458 6.94525 416.78 7.96219 416.102 8.97914C415.593 9.99609 415.424 11.1825 415.424 12.369C415.424 14.5724 416.271 16.2673 417.797 17.4537C419.322 18.6402 421.186 19.8266 423.559 20.8436C425.932 21.8605 428.475 22.708 431.017 23.7249C433.729 24.5724 436.271 25.7588 438.644 27.1147C441.017 28.4707 442.881 29.9961 444.407 32.03C445.932 33.8944 446.78 36.4368 446.78 39.4876C446.78 41.691 446.271 43.7249 445.424 45.5893C444.576 47.4537 443.22 48.9791 441.695 50.3351C440 51.691 438.136 52.708 435.763 53.3859C433.39 54.0639 430.847 54.4029 427.966 54.4029C425.085 54.4029 422.542 54.0639 420.169 53.3859C417.797 52.708 415.763 51.691 413.898 50.5046C412.203 49.3181 410.678 47.7927 409.661 46.0978C408.136 44.0639 407.458 42.1995 407.458 39.9961ZM390.169 1.01304H356.441V53.2164H390.169V49.1486H363.22V27.2842H386.441V23.8944H363.22V5.08084H390.169V1.01304ZM301.017 49.9961H309.153C313.22 49.9961 316.61 49.3181 319.492 47.9622C322.373 46.6063 324.746 44.7419 326.61 42.5385C328.475 40.3351 329.831 37.9622 330.678 35.2503C331.525 32.5385 331.864 29.8266 331.864 27.1147C331.864 24.0639 331.356 21.1825 330.339 18.4707C329.322 15.7588 327.797 13.2164 325.932 11.1825C324.068 8.97915 321.695 7.28423 318.814 6.09779C315.932 4.91135 312.712 4.23338 308.983 4.23338H300.847V49.9961H301.017ZM294.237 53.2164V1.01304H311.356C315.424 1.01304 319.322 1.69101 322.712 3.04694C326.102 4.40287 329.153 6.09779 331.525 8.47067C334.068 10.8436 335.932 13.5554 337.288 16.6063C338.644 19.8266 339.322 23.2164 339.322 26.9452C339.322 30.8435 338.644 34.2334 337.119 37.6232C335.763 40.8436 333.729 43.5554 331.356 45.9283C328.983 48.3012 326.102 50.1656 322.712 51.352C319.492 52.708 315.932 53.2164 312.203 53.2164H294.237ZM227.797 53.2164H234.576V5.08084H254.576V1.01304H207.797V5.08084H227.797V53.2164ZM122.034 1.01304H128.814V53.2164H122.034V1.01304ZM188.305 0.843551H191.695V54.0639H191.356L150 13.2164H149.661V53.2164H146.271V-0.00390625H146.61L187.966 40.8436H188.305V0.843551Z" fill="#41342B"/>
</svg>
